<svg xmlns="http://www.w3.org/2000/svg" viewBox="0 0 686.73 129.01"><defs><style>.a{fill:none;stroke:#000;stroke-miterlimit:10;stroke-width:20px;}</style></defs><path d="M302.71,500.59q16.88-1.41,16.88-18.4,0-11.42-7.8-18.63-7.67-7-23.61-7H259.76V547H294q12.25,0,19.75-7.15t7.56-18.75q0-9.26-4.49-14.18T302.71,500.59ZM284.2,476.16l1.49-.09,1,0q8.61,0,8.61,7.85a6.94,6.94,0,0,1-2.55,5.74,10.75,10.75,0,0,1-6.94,2.06H284.2Zm9.4,48.92a10.58,10.58,0,0,1-7.29,2.41l-.88,0-1.23-.09V510h1.93a11.28,11.28,0,0,1,7.47,2.29,7.8,7.8,0,0,1,2.73,6.33A8.15,8.15,0,0,1,293.6,525.08Z" transform="translate(-223.89 -438.03)"/><path d="M346.89,456.53,325.15,547h25.26l2-11.49h16.47L370.68,547h25.26l-19.16-90.47Zm8.79,59.59,2.46-14.18,1.7-11c0-.19.12-.76.24-1.7s.31-2.61.58-5c.16-1.21.3-2.32.44-3.34s.25-1.93.32-2.75l.77,8.55c.19,1.76.35,3.22.46,4.37s.22,2.06.3,2.72q1.11,8.91,1.23,10.2a9.34,9.34,0,0,0,.23,1.58L366,516.12Z" transform="translate(-223.89 -438.03)"/><path d="M463.2,486.7q0-15.34-10.43-23.67-8.2-6.5-24.73-6.5H403V547h24.31V515.36l-.17-6c.43,1.25.79,2.32,1.08,3.22s.5,1.62.62,2.17L440.94,547h26.42L449.2,509.38Q463.19,503.11,463.2,486.7Zm-27.07,8.5a8.93,8.93,0,0,1-7,3.22h-1.64V476.86h.88q10.61,0,10.6,10.14A12,12,0,0,1,436.13,495.2Z" transform="translate(-223.89 -438.03)"/><polygon points="315.54 18.49 289.76 18.49 275.35 57.28 275.99 18.49 251.56 18.49 251.56 108.96 275.99 108.96 275.35 67.24 291.58 108.96 317.95 108.96 296.03 62.15 315.54 18.49"/><polygon points="321.17 40.17 334.65 40.17 334.65 108.96 359.08 108.96 359.08 40.17 373.08 40.17 373.08 18.49 321.17 18.49 321.17 40.17"/><path d="M663.47,486.7q0-15.34-10.43-23.67-8.19-6.5-24.72-6.5h-25V547h24.32V515.36l-.18-6c.43,1.25.79,2.32,1.08,3.22a21.72,21.72,0,0,1,.62,2.17L641.21,547h26.42l-18.16-37.62Q663.48,503.11,663.47,486.7Zm-27.07,8.5a8.92,8.92,0,0,1-7,3.22h-1.64V476.86h.88q10.6,0,10.61,10.14A12,12,0,0,1,636.4,495.2Z" transform="translate(-223.89 -438.03)"/><path d="M711.93,515q0,6.09-1.35,8.49t-4.86,2.29a5.14,5.14,0,0,1-4.83-2.46c-1-1.64-1.44-4.44-1.44-8.38V456.53H675v60.53q0,17.4,10.78,25.31,8.49,6.21,21,6.21,11.08,0,18.81-5.62a25.33,25.33,0,0,0,8.21-9.44c1.67-3.32,2.52-7.65,2.52-13v-64H711.93Z" transform="translate(-223.89 -438.03)"/><path d="M780.6,523.44a13.66,13.66,0,0,1-4.83-4.57,23.37,23.37,0,0,1-3-7.32,42,42,0,0,1-1-9.85q0-11.35,4.22-17.81a13.28,13.28,0,0,1,11.71-6.38q5.75,0,11.2,5.44V457.11a35.48,35.48,0,0,0-12.07-2.22q-18.22,0-29.13,12.89t-10.89,34.33q0,22.86,11.6,35.34a33.53,33.53,0,0,0,25.54,11.13,39.57,39.57,0,0,0,14.59-3.28l1.41-26.13Q793.49,525,787.17,525A13.36,13.36,0,0,1,780.6,523.44Z" transform="translate(-223.89 -438.03)"/><polygon points="653.98 108.96 632.07 62.15 651.58 18.49 625.8 18.49 611.38 57.28 612.03 18.49 587.6 18.49 587.6 108.96 612.03 108.96 611.38 67.24 627.62 108.96 653.98 108.96"/><rect class="a" x="10" y="10" width="666.73" height="109.01"/></svg>