<svg xmlns="http://www.w3.org/2000/svg" xmlns:xlink="http://www.w3.org/1999/xlink" viewBox="0 0 751.6 468.28"><defs><style>.a{fill:none;}.b{fill:#ffd500;}.c{fill:#00296b;}.d{fill:url(#a);}</style><pattern id="a" width="1080" height="1080" patternUnits="userSpaceOnUse" viewBox="0 0 1080 1080"><rect class="a" width="1080" height="1080"/><rect class="b" width="540" height="1080"/><rect class="c" x="540" width="540" height="1080"/></pattern></defs><path class="d" d="M879.12,483.13c-8.86-3.87-21-9.34-33.29-14.48-7.67-3.21-15.51-6-23.34-8.86-50.78-18.34-124.49,8.68-129.21,87.46-1.83,30.56,7.4,58.62,17.64,86.43,6.56,17.79,20,29.36,39.38,31.1,20.89,1.87,39.68-4.1,52.36-21.79,7-9.78,12.56-20.8,17.59-31.8,6.6-14.45,11.32-18.22,27.31-18.35l3.49,0c18.18-.18,33.42-7.14,45.55-20.48,11.7-12.88,19.78-27.4,16.34-45.68C909.42,508,898.55,494.43,879.12,483.13ZM490.87,612.74c2.69-7.46,5.51-13.08,6.71-19,3.8-18.73,3.7-37.25-10.2-52.27-14.56-15.74-33.41-21.6-54.15-17.1-21.77,4.73-43.57,10.11-64.52,17.56-32.75,11.64-53.22,35.9-61.91,69.32-7.58,29.1,1.14,55.16,17.58,79.33C341.06,715.09,365,731.38,389.7,746c33.74,20,76.69-4,78.28-43.38.53-13.24-2.06-26.89-5.14-39.9-3.85-16.24-2.62-22,10.22-32.66C479.75,624.51,485.61,617.92,490.87,612.74ZM611,498.23c14.35,8.32,23,11,33.18,11.58,29.38,1.55,49.94-20.78,45.91-49.88s-30.24-54.31-59.78-57.44c-31.71-3.37-54.31,20.73-48.45,52.12C585.72,475.18,597.85,490.06,611,498.23Zm145.66-163c-38.15-22-73.09-2.4-73.3,36.27-.14,26.44,17.82,53.31,42.29,63.27,29.58,12,58.3-4.83,61-36.62C789.05,369.42,775.75,348.26,756.69,335.18ZM283.51,492.24c-15.95-9.06-32.87-12.51-51-8.42-29.76,6.72-44.07,35.13-31.19,61.78,14.13,29.21,54,44.48,84.19,32.21,26.33-10.7,35.61-38.73,21-63.13A64,64,0,0,0,283.51,492.24ZM252.12,610.65c-21-10.31-45-11.73-68.38,2.7-24.56,15.14-28.71,45.11-9.71,66.1,21.81,24.1,63.68,28,89.37,8,13.94-10.85,20.72-25.16,16.83-43C277.06,629.9,267.53,619.91,252.12,610.65ZM889.45,431.82c12.48-21.7,9.43-51.42-7.18-69.94-18-20.1-45.81-19.12-61,2.17-15.77,22.07-13.08,56.12,6,75.63C847,459.86,875.41,456.27,889.45,431.82Zm-511.79,1.66c.1-.44.21-.87.31-1.31-8.12-2.15-16.13-5.4-24.38-6.25-23.09-2.35-40.71,13.9-41.38,37.11-.76,26.59,21.78,53.4,49,58.33,30.39,5.5,52.94-18.44,45.66-48.48C402.72,455.62,392.58,442.77,377.66,433.48Zm-58,281.84c-23.32-13.49-55.73-8.4-73.71,11.56-18.17,20.17-13.36,47.77,10.57,60.69,23.15,12.49,54.8,7,72.43-12.5C346.81,755.24,342.68,728.66,319.62,715.32ZM648.83,537.91c-12.72-7.3-26.59-9.94-39.87-7.59-26.4,4.66-39.68,29.38-29,54,10.8,24.92,40.58,40.27,67.13,34.59,23.76-5.08,36.38-27.47,28.3-50.35C670.54,554.89,661.22,545.05,648.83,537.91Z" transform="translate(-162.14 -325.98)"/></svg>